<svg xmlns="http://www.w3.org/2000/svg" viewBox="0 0 16 16"><path d="M12.6 3.3c0 .2.1.3.3.4.9 0 1.8.1 2.7.2.2 0 .4.1.4.2s-.2.1-.4.2c-.9.1-1.8.2-2.7.2-.2 0-.3.2-.3.4s.1.3.3.4c.9 0 1.8.1 2.7.2.2 0 .4.1.4.2l-.4.2c-.9.2-1.8.2-2.7.3-.2 0-.3.2-.3.4s.1.3.3.4c.9 0 1.8.1 2.7.3.2 0 .4.1.4.2s-.2.1-.4.2c-.9.1-1.8.2-2.7.2-.2 0-.3.2-.3.3 0 .2.1.4.3.4.9 0 1.8.1 2.7.2.2 0 .4.1.4.2s-.2-.1-.4 0c-.9.2-1.8.2-2.7.2-.2 0-.3.2-.3.4s.1.4.3.4c.9 0 1.8.1 2.7.2.2 0 .4.1.4.2s-.2.1-.4.2c-.9.2-1.8.2-2.7.2-.2 0-.3.2-.3.4s.1.4.3.4c.9 0 1.8.1 2.7.2.2 0 .4.1.4.2s-.2.1-.4.2c-.9.2-1.8.2-2.7.2-.2 0-.3.2-.3.4s.1.3.3.4c.9 0 1.8.1 2.7.2.2 0 .4.1.4.2s-.2.1-.4.2c-.9.2-1.8.2-2.7.2-.2 0-.3.2-.3.4s.1.4.3.4h2.9c.1 0 .2.1.2.2 0 .3-.2.5-.6.7-1.2.4-2.6.6-3.7.4-.6-.1-1-.4-1-1.7V1.8c0-1.3.4-1.6 1-1.7 1.1-.2 2.5 0 3.7.4.4.1.6.4.6.6 0 .1-.1.2-.2.2h-2.9c-.2 0-.3.2-.3.4s.1.3.3.4c.9 0 1.8.1 2.7.2.2 0 .4.1.4.2s-.2.1-.4.2c-.9.2-1.8.2-2.7.3-.1-.1-.3.1-.3.3zM8.7 13c.3 1.4-.3 2.7-1.2 3-1 .3-1.6-.8-1.9-2.1-.1-.6-.2-1.2 0-1.8L4.4 9.9 3.2 12c.1.6.1 1.2 0 1.8-.3 1.4-.9 2.4-1.9 2.1-.9-.3-1.5-1.6-1.2-3 .3-1.4 1.3-2.3 2.2-2 .2 0 .3.1.4.2l.8-2.9c0-.1-.1-.3-.1-.5-.2-1.4-1-7-.5-7.7l1.6 5.5L6 0c.4.6-.3 6.2-.5 7.7 0 .2-.1.4-.2.6l.7 2.9c.2-.1.3-.2.5-.2.9-.3 1.9.6 2.2 2zm-6.3-.8c-.1-.4-.3-.5-.4-.5-.6-.2-1.2.6-1.4 1.5s.1 2 .7 2.1c.2 0 .3 0 .6-.3.3-.4.4-.9.5-1.4.1-.4.1-.9 0-1.4zm2.3-4.7c0-.2-.2-.4-.4-.4-.1.1-.3.2-.3.4s.2.4.4.4.3-.2.3-.4zm3.5 5.7c-.2-1-.8-1.7-1.4-1.5-.2 0-.3.1-.4.5-.1.5-.1 1 .1 1.5.1.5.2 1 .5 1.4.2.3.4.3.6.3.5-.2.8-1.2.6-2.2z"/></svg>