<svg xmlns="http://www.w3.org/2000/svg" viewBox="0 0 90 90"><path d="M71 18.5c-.1 1.1.7 1.9 1.7 2 5.1 0 10.1.5 15.1 1.3 1.1.2 2.1.7 2.1 1s-.9.7-2.1 1c-5 .8-10 1.3-15.1 1.3-1 .1-1.8 1-1.7 2.1-.1 1 .7 1.9 1.7 2 5.1 0 10.1.5 15.1 1.4 1.1.2 2.1.7 2.1 1s-.9.7-2.1 1c-5 .9-10 1.3-15.1 1.4-1 .1-1.8 1-1.7 2.1-.1 1 .7 1.9 1.7 2 5.1.1 10.1.6 15.1 1.5 1.1.2 2.1.7 2.1 1 0 .2-.9.7-2.1 1-5 .8-10 1.3-15.1 1.3-.9.2-1.6.8-1.7 1.7-.2 1.2.6 2.2 1.7 2.4 5.1 0 10.1.5 15.1 1.3 1.1.2 2.1.7 2.1 1 0 .2-.9.7-2.1 1-5 .9-10.1 1.3-15.1 1.3-1 .1-1.8 1-1.7 2-.1 1.1.7 2 1.8 2.1 5 .1 10.1.5 15.1 1.4 1.1.2 2.1.7 2.1 1s-.9.7-2.1 1c-5 .9-10.1 1.3-15.1 1.3-1 .1-1.8 1-1.7 2-.1 1.1.7 2 1.7 2.2 5.1 0 10.1.5 15.1 1.3 1.1.2 2.1.7 2.1 1 0 .2-.9.7-2.1 1-5 .9-10.1 1.3-15.1 1.3-1 .1-1.8 1-1.7 2 0 1 .7 1.9 1.8 2.1 5.1 0 10.1.5 15.1 1.3 1.1.2 2.1.7 2.1 1s-.9.7-2.1 1c-5 .9-10.1 1.3-15.2 1.4-1 .1-1.8 1-1.7 2v.1c-.1 1.1.7 2 1.8 2.1H89c.6 0 1 .6 1 1.1 0 1.5-1.4 3-3.5 3.7-6.7 2.2-14.5 3.2-21 2.2-3.3-.5-5.6-2.3-5.6-9.7V10.1c0-7.4 2.3-9.2 5.6-9.7 6.5-1 14.3 0 21 2.3 2.1.7 3.5 2.1 3.5 3.7 0 .6-.4 1.1-1 1.1H72.8c-1 .1-1.8 1-1.7 2.1v.1c-.1 1 .7 1.9 1.7 2 5.1 0 10.1.5 15.1 1.3 1.1.2 2.1.7 2.1 1s-.9.7-2.1 1c-5 .9-10 1.4-15.1 1.4-1.1.2-1.8 1.1-1.8 2.1zM48.9 73.1c1.5 7.8-1.5 15.2-6.9 16.6s-9-4.3-10.5-12c-.8-3.3-.8-6.7-.3-10l-6.6-12.3L18 67.7c.6 3.3.5 6.7-.3 10-1.5 7.7-5.1 13.4-10.5 12C2 88.4-1.2 80.9.4 73.1 2 65.4 7.6 60.2 13 61.6c.9.2 1.7.6 2.4 1.2L20 46.7c-.6-1.1-1-2.3-1.1-3.5-1.2-8.1-5.4-39.7-3.1-43.2l8.9 30.7L33.5 0c2.3 3.5-1.9 35.1-3.1 43.2-.2 1.2-.6 2.4-1.1 3.5L34 62.8c.7-.6 1.5-1 2.4-1.2 5.4-1.4 11 3.8 12.5 11.5zm-35.3-4.6c-.5-2.2-1.5-2.7-2.3-2.9-3.2-.9-6.9 3.1-8 8.7s.7 11 3.9 11.8c.9.2 2 .2 3.2-1.5 1.5-2.3 2.5-5 2.9-7.7.6-2.7.7-5.6.3-8.4zm13.1-26.1c0-1.2-1-2.1-2.1-2.1-1.2 0-2.1 1-2.1 2.1 0 1.2 1 2.1 2.1 2.1s2.1-.9 2.1-2.1zm19.4 31.9c-1.1-5.6-4.8-9.5-8-8.7-.9.2-1.9.8-2.3 2.9-.5 2.8-.3 5.6.3 8.4.4 2.7 1.4 5.4 2.9 7.7 1.2 1.7 2.3 1.7 3.2 1.5 3.2-.9 5-6.3 3.9-11.8z" fill="#fff"/></svg>